<?xml version="1.0" encoding="UTF-8"?>
<svg id="Capa_1" data-name="Capa 1" xmlns="http://www.w3.org/2000/svg" viewBox="0 0 24.69 24.7">
  <defs>
    <style>
      .cls-1 {
        fill: #fff0f5;
      }
    </style>
  </defs>
  <path class="cls-1" d="m7.95.7C4.31.7,1.35,3.66,1.35,7.3v9.44c0,3.64,2.97,6.61,6.61,6.61h9.44c3.64,0,6.61-2.97,6.61-6.61V7.3c0-3.64-2.97-6.61-6.61-6.61H7.95Zm11.33,3.78c.52,0,.94.42.94.94s-.42.94-.94.94-.94-.42-.94-.94.42-.94.94-.94Zm-6.61,1.89c3.12,0,5.66,2.54,5.66,5.66s-2.54,5.66-5.66,5.66-5.66-2.54-5.66-5.66,2.54-5.66,5.66-5.66Zm0,1.89c-2.09,0-3.78,1.69-3.78,3.78s1.69,3.78,3.78,3.78,3.78-1.69,3.78-3.78-1.69-3.78-3.78-3.78Z"/>
</svg>