<?xml version="1.0" encoding="UTF-8"?>
<svg id="Capa_1" data-name="Capa 1" xmlns="http://www.w3.org/2000/svg" viewBox="0 0 115 34.37">
  <defs>
    <style>
      .cls-1 {
        fill: none;
      }

      .cls-2 {
        fill: #483d8b;
      }
    </style>
  </defs>
  <path class="cls-2" d="m8.1,5.29v22.52h12.71c1.01,0,1.79.25,2.33.74.54.49.81,1.11.81,1.86s-.27,1.38-.8,1.85c-.53.47-1.32.71-2.34.71H5.67c-1.37,0-2.35-.3-2.94-.91-.6-.6-.9-1.58-.9-2.93V5.29c0-1.27.28-2.22.85-2.85.57-.63,1.32-.95,2.25-.95s1.71.31,2.29.94c.58.63.88,1.58.88,2.86Z"/>
  <g>
    <g>
      <path class="cls-2" d="m35.4,27.72c-.17.35-.34.55-.34.55-.12,0-.52,0-.58.17,0,0-.02.01-.03.02,0,0-.02.01-.03.02-.06.03-.14.06-.2.09-.02,0-.03-.02-.05-.03.09-.14.2-.29.3-.43.02-.03.04-.05.05-.08.12-.17.23-.33.33-.48.02-.02.03-.04.04-.06.02-.03.04-.05.05-.08,0-.01.02-.03.03-.04,0-.01.02-.02.02-.04s.02-.02.02-.03c.03-.05.06-.09.08-.12.17-.41.23-.87.17-1.45,0,0,.63,1.1.11,1.99Z"/>
      <path class="cls-2" d="m39.69,28.4s-.09.06-.14.09c-.03-.01-.05-.03-.08-.04-.06-.17-.46-.17-.58-.17,0,0-.18-.2-.34-.55-.52-.9.11-1.99.11-1.99-.06.58,0,1.04.17,1.45.04.06.09.13.14.21.01.02.03.04.04.06.04.06.09.13.14.2,0,.01.02.03.03.04.03.04.06.08.09.12.01.02.03.04.04.06.12.18.25.36.37.54Z"/>
      <path class="cls-2" d="m42.81,21.74c0,2.33-.24,4.28-1.28,5.6-.19.24-.95.35-1.17.55-.21-.45-.45-.97-.6-1.23-.29-.52-.17-1.91-.17-1.91,0,0,.17-1.5-1.27-1.62-.65-.19-.78-.67-.71-1.06.22-.25.37-.64.37-1.08,0-.77-.44-1.39-.98-1.39,0,0,0,0-.01,0,0,0,0,0-.01,0-.54,0-.98.62-.98,1.39,0,.44.14.83.37,1.08.06.39-.07.87-.71,1.06-1.45.12-1.27,1.62-1.27,1.62,0,0,.12,1.39-.17,1.91-.17.3-.46.94-.69,1.43-.72-.58-1.56-1.19-1.97-2.19-.46-1.13-.72-2.57-.72-4.08,0-1.04.1-2.02.32-2.88.9.2,2.46.75,3.07,1.98.22-.42,1.37-2.42,2.4-3.7.09-.11.18-.22.27-.32.11.08.22.19.34.32.82.87,1.91,2.67,2.07,3.7.53-.64,1.7-1.57,3.21-2.06.2.83.32,1.85.32,2.88Z"/>
      <path class="cls-1" d="m38.84,27.17c.04.06.09.13.14.21.01.02.03.04.04.06.04.06.09.13.14.2,0,.01.02.03.03.04.03.04.06.08.09.12.01.02.03.04.04.06.12.18.25.36.37.54.24-.15.46-.33.67-.52-.21-.45-.45-.97-.6-1.23-.29-.52-.17-1.91-.17-1.91,0,0,.17-1.5-1.27-1.62-.65-.19-.78-.67-.71-1.06.22-.25.37-.64.37-1.08,0-.77-.44-1.39-.98-1.39,0,0,0,0-.01,0,0,0,0,0-.01,0-.54,0-.98.62-.98,1.39,0,.44.14.83.37,1.08.06.39-.07.87-.71,1.06-1.45.12-1.27,1.62-1.27,1.62,0,0,.12,1.39-.17,1.91-.17.3-.46.94-.69,1.43.09.07.18.14.28.21.13.09.26.17.39.25.09-.14.2-.29.3-.43.02-.03.04-.05.05-.08.12-.17.23-.33.33-.48.02-.02.03-.04.04-.06.02-.03.04-.05.05-.08,0-.01.02-.03.03-.04,0-.01.02-.02.02-.04s.02-.02.02-.03c.03-.05.06-.09.08-.12.17-.41.23-.87.17-1.45,0,0,.63,1.1.11,1.99-.17.35-.34.55-.34.55-.12,0-.52,0-.58.17,0,0-.02.01-.03.02,0,0-.02.01-.03.02-.06.03-.14.06-.2.09.75.42,1.61.62,2.57.62,1.05,0,1.97-.24,2.76-.71-.03-.01-.05-.03-.08-.04-.06-.17-.46-.17-.58-.17,0,0-.18-.2-.34-.55-.52-.9.11-1.99.11-1.99-.06.58,0,1.04.17,1.45Z"/>
    </g>
    <path class="cls-2" d="m47.53,16.99c-.53-1.44-1.3-2.68-2.32-3.72-1.02-1.04-2.24-1.85-3.66-2.41-1.42-.56-3.01-.85-4.76-.85s-3.29.28-4.72.84c-1.42.56-2.64,1.35-3.64,2.38-1,1.03-1.77,2.27-2.31,3.72-.54,1.45-.8,3.05-.8,4.8s.26,3.32.79,4.75c.53,1.43,1.3,2.67,2.33,3.72,1.02,1.05,2.23,1.86,3.63,2.42,1.4.56,2.97.85,4.72.85s3.35-.28,4.76-.84c1.41-.56,2.62-1.36,3.64-2.4,1.02-1.04,1.79-2.29,2.33-3.74.54-1.45.8-3.04.8-4.76s-.26-3.32-.79-4.76Zm-6.56,10.23c-.19.24-.4.46-.61.66-.21.2-.44.37-.67.52-.05.03-.09.06-.14.09-.79.47-1.71.71-2.76.71-.96,0-1.82-.21-2.57-.62-.02,0-.03-.02-.05-.03-.13-.08-.26-.16-.39-.25-.1-.07-.19-.14-.28-.21-.72-.58-1.28-1.38-1.69-2.38-.46-1.13-.69-2.45-.69-3.96,0-1.04.11-1.98.32-2.84.1-.4.23-.79.37-1.15.47-1.14,1.13-2.01,1.99-2.59.86-.59,1.85-.88,2.98-.88,1.75,0,3.14.66,4.18,1.97.58.74,1,1.65,1.26,2.72.2.83.3,1.76.3,2.78,0,2.33-.52,4.15-1.55,5.47Z"/>
  </g>
  <path class="cls-2" d="m54.09,10.57h.63v-3.46c0-.93.02-1.66.07-2.18.05-.53.19-.98.41-1.36.22-.39.55-.71.97-.96.42-.25.89-.37,1.41-.37.73,0,1.39.27,1.98.82.39.37.64.81.75,1.34.11.53.16,1.28.16,2.25v3.93h2.11c.82,0,1.44.19,1.87.58.43.39.64.88.64,1.49,0,.77-.31,1.32-.92,1.63-.61.31-1.49.46-2.63.46h-1.08v10.6c0,.9.03,1.59.1,2.08s.23.88.51,1.18c.27.3.72.45,1.34.45.34,0,.79-.06,1.37-.18.58-.12,1.03-.18,1.35-.18.46,0,.88.19,1.26.56.37.37.56.83.56,1.38,0,.93-.51,1.64-1.52,2.13-1.01.49-2.47.74-4.37.74-1.8,0-3.17-.3-4.09-.91s-1.54-1.44-1.83-2.51c-.29-1.07-.43-2.5-.43-4.28v-11.06h-.76c-.83,0-1.46-.2-1.9-.59-.44-.39-.65-.89-.65-1.5s.23-1.1.69-1.49c.46-.39,1.12-.58,1.99-.58Z"/>
  <path class="cls-2" d="m84.05,30.24v-.74c-.69.87-1.41,1.6-2.17,2.2-.76.59-1.59,1.03-2.49,1.32-.9.29-1.93.43-3.08.43-1.39,0-2.64-.29-3.75-.87-1.1-.58-1.96-1.37-2.56-2.39-.72-1.22-1.08-2.98-1.08-5.28v-11.42c0-1.15.26-2.02.78-2.59.52-.57,1.21-.85,2.07-.85s1.58.29,2.11.87c.53.58.8,1.44.8,2.58v9.22c0,1.34.11,2.46.34,3.37.22.91.63,1.62,1.21,2.13.58.51,1.38.77,2.37.77s1.89-.29,2.74-.87c.86-.58,1.48-1.33,1.88-2.26.32-.82.49-2.6.49-5.36v-7.01c0-1.14.27-2,.8-2.58.53-.58,1.23-.87,2.09-.87s1.55.28,2.07.85c.52.57.78,1.43.78,2.59v16.7c0,1.1-.25,1.92-.75,2.47-.5.55-1.14.82-1.93.82s-1.44-.28-1.95-.85c-.51-.57-.77-1.37-.77-2.4Z"/>
  <path class="cls-2" d="m113.75,25.95c0,1.59-.39,2.95-1.16,4.08-.77,1.13-1.92,1.99-3.43,2.58-1.51.58-3.35.88-5.52.88s-3.84-.32-5.32-.95c-1.48-.63-2.57-1.42-3.27-2.37-.7-.95-1.06-1.9-1.06-2.86,0-.63.22-1.17.68-1.63s1.02-.68,1.71-.68c.6,0,1.07.15,1.39.44.32.3.63.71.93,1.25.59,1.03,1.3,1.79,2.12,2.3.82.51,1.95.76,3.37.76,1.15,0,2.1-.26,2.84-.77.74-.51,1.11-1.1,1.11-1.76,0-1.01-.38-1.75-1.15-2.22-.77-.46-2.03-.91-3.79-1.33-1.98-.49-3.6-1.01-4.84-1.55-1.25-.54-2.24-1.26-2.99-2.14-.75-.89-1.12-1.98-1.12-3.27,0-1.15.34-2.24,1.03-3.27.69-1.03,1.71-1.85,3.05-2.46,1.34-.61,2.97-.92,4.87-.92,1.49,0,2.83.15,4.02.46,1.19.31,2.18.72,2.98,1.25.79.52,1.4,1.1,1.82,1.73.41.63.62,1.25.62,1.86,0,.66-.22,1.2-.66,1.63-.44.42-1.07.63-1.89.63-.59,0-1.09-.17-1.51-.51-.42-.34-.89-.84-1.42-1.52-.44-.56-.95-1.01-1.54-1.35-.59-.34-1.39-.51-2.41-.51s-1.91.22-2.6.66c-.69.44-1.03,1-1.03,1.66,0,.61.25,1.1.76,1.49.51.39,1.19.71,2.05.96.86.25,2.04.56,3.55.93,1.79.44,3.25.96,4.38,1.56,1.13.61,1.99,1.32,2.58,2.14.58.82.88,1.76.88,2.82Z"/>
  <path class="cls-2" d="m46.89,23.42s1.52-.56,2.72-1.28c1.28,1.52-1.28,9.51-9.75,10.79"/>
  <path class="cls-2" d="m26.97,23.42s-1.52-.56-2.72-1.28c-1.28,1.52,1.28,9.51,9.75,10.79"/>
</svg>