<?xml version="1.0" encoding="UTF-8"?>
<svg id="Capa_1" data-name="Capa 1" xmlns="http://www.w3.org/2000/svg" viewBox="0 0 24.69 24.7">
  <defs>
    <style>
      .cls-1 {
        fill: #fff0f5;
      }
    </style>
  </defs>
  <path class="cls-1" d="m25,4.4c-.92.41-1.91.68-2.94.81,1.06-.63,1.87-1.64,2.25-2.84-.99.59-2.09,1.01-3.26,1.24-.93-1-2.27-1.62-3.74-1.62-2.83,0-5.13,2.3-5.13,5.13,0,.4.05.79.13,1.17-4.26-.21-8.04-2.25-10.57-5.36-.44.76-.69,1.64-.69,2.58,0,1.78.9,3.35,2.28,4.27-.84-.03-1.63-.26-2.32-.64v.06c0,2.48,1.77,4.56,4.11,5.03-.43.12-.88.18-1.35.18-.33,0-.65-.03-.96-.09.65,2.04,2.55,3.52,4.79,3.56-1.75,1.38-3.96,2.19-6.37,2.19-.41,0-.82-.02-1.22-.07,2.27,1.45,4.96,2.3,7.86,2.3,9.43,0,14.58-7.81,14.58-14.58,0-.22,0-.44-.01-.66,1-.72,1.87-1.63,2.56-2.65Z"/>
</svg>